<svg width="120" height="16" viewBox="0 0 120 16" fill="none" xmlns="http://www.w3.org/2000/svg">
<g clip-path="url(#clip0)">
<path d="M16.0841 0.994252C14.4889 1.20824 14.0984 1.42223 13.2247 3.55557C12.5827 5.11935 9.29303 13.0601 8.12478 16H7.34044C5.9339 12.1844 3.88534 6.63704 2.52514 3.12758C1.86324 1.37285 1.45286 1.13582 0 0.994252V0.335815H6.05305V0.994252C4.28909 1.1852 4.19312 1.46832 4.52737 2.34733C5.12308 4.07573 6.86387 8.79343 8.36307 12.7309C9.62729 9.67244 11.1993 5.81729 12.3344 2.82141C12.8573 1.44528 12.5727 1.23129 10.6168 0.994252V0.335815H16.0973L16.0841 0.994252Z" fill="black"/>
<path d="M26.2273 15.7399V15.0815C28.1799 14.8708 28.3718 14.7753 28.3718 12.777V3.34158C28.3718 1.30372 28.1799 1.20824 26.2273 0.994252V0.335815H32.6146V0.994252C30.6289 1.20824 30.4436 1.30372 30.4436 3.34158V12.7539C30.4436 14.7918 30.6355 14.8642 32.6146 15.0584V15.7169L26.2273 15.7399Z" fill="black"/>
<path d="M56.8763 15.9309C56.5686 15.9309 56.3038 15.9045 55.996 15.8815C54.2552 15.763 53.3253 15.3119 52.2762 13.8436C51.3958 12.6354 50.5387 11.1407 49.7742 9.93252C49.2976 9.17202 48.9899 9.03046 47.7885 9.03046H46.9512V12.7539C46.9512 14.7687 47.216 14.8873 49.1222 15.0584V15.7169H42.7449V15.0584C44.7306 14.8477 44.8894 14.7523 44.8894 12.7539V3.29548C44.8894 1.28067 44.628 1.20824 42.7449 0.990956V0.33252H48.8211C50.5619 0.33252 51.7301 0.546515 52.6336 1.13911C53.1546 1.47522 53.5784 1.94092 53.8628 2.49008C54.1473 3.03924 54.2825 3.65279 54.2552 4.26996C54.2552 6.30782 52.9314 7.58848 51.1807 8.34569C51.611 9.08313 52.6336 10.67 53.3517 11.7366C53.9198 12.5939 54.5479 13.4102 55.2315 14.1794C55.6859 14.7115 56.2935 15.0919 56.9723 15.2691L56.8763 15.9309ZM48.0831 8.214C49.3241 8.214 50.1085 8.02635 50.7042 7.52923C51.6341 6.84117 52.028 5.88314 52.028 4.61235C52.028 2.07408 50.3368 1.15227 48.5034 1.15227C47.8117 1.15227 47.4046 1.24445 47.2391 1.38931C47.024 1.55392 46.9512 1.79095 46.9512 2.40659V8.214H48.0831Z" fill="black"/>
<path d="M84.0204 0.994252C82.498 1.16215 81.995 1.39918 81.9255 2.48889C81.899 3.2461 81.8527 4.24363 81.8527 6.43951V15.9473H80.9459L70.7493 3.55557V9.48149C70.7493 11.6148 70.8188 12.6815 70.8685 13.3696C70.9148 14.5778 71.5105 14.9333 73.2248 15.0749V15.7333H67.4366V15.0749C68.9126 14.9564 69.4851 14.6008 69.5811 13.4288C69.6506 12.6683 69.7002 11.6017 69.7002 9.44528V3.41401C69.7002 2.75557 69.6506 2.37038 69.2237 1.84693C68.7703 1.25433 68.2705 1.11277 67.1023 0.994252V0.335815H70.6765L80.7804 12.2601V6.4461C80.7804 4.24363 80.7341 3.22305 80.6612 2.51194C80.5884 1.44528 80.0424 1.11277 78.1361 0.994252V0.335815H84.0204V0.994252Z" fill="black"/>
<path d="M103.993 15.7399V15.0815C105.541 14.8939 105.73 14.6568 105.399 13.7646C105.068 12.8725 104.611 11.6544 104.112 10.163H98.9621C98.5815 11.2297 98.2241 12.1383 97.8899 13.126C97.367 14.6667 97.7012 14.8544 99.6538 15.1013V15.7597H94.1501V15.1013C95.6526 14.9136 96.0332 14.7457 96.8672 12.6124L101.798 0.167929L102.563 0.0263672C104.062 4.07904 105.707 8.5597 107.196 12.6618C107.957 14.7227 108.172 14.9136 109.864 15.1013V15.7597L103.993 15.7399ZM101.61 3.10456C100.845 5.14242 100.034 7.2988 99.3195 9.17205H103.777L101.61 3.10456Z" fill="black"/>
</g>
<defs>
<clipPath id="clip0">
<rect width="120" height="16" fill="white"/>
</clipPath>
</defs>
</svg>
